<svg width="56" height="56" viewBox="0 0 56 56" fill="none" xmlns="http://www.w3.org/2000/svg">
<path d="M28 0C17.707 0 9.33337 8.37016 9.33337 18.6576V37.3434C9.33337 47.6306 17.707 56 28 56C38.2931 56 46.6667 47.6309 46.6667 37.3434V18.6576C46.6667 8.37016 38.2928 0 28 0ZM44.5927 37.3434C44.5927 46.4873 37.1492 53.926 28 53.926C18.8509 53.926 11.4074 46.4873 11.4074 37.3434V18.6576C11.4074 9.51378 18.8509 2.07404 28 2.07404C37.1492 2.07404 44.5927 9.51351 44.5927 18.6576V37.3434Z" fill="white"/>
<path d="M28 6.22217C27.4273 6.22217 26.9629 6.68605 26.9629 7.25932V16.6504C26.9629 17.2237 27.4273 17.6876 28 17.6876C28.5728 17.6876 29.0372 17.2237 29.0372 16.6504V7.25932C29.0369 6.68605 28.5728 6.22217 28 6.22217Z" fill="white"/>
</svg>
