<svg width="187" height="85" viewBox="0 0 187 85" fill="none" xmlns="http://www.w3.org/2000/svg">
<g clip-path="url(#clip0)">
<path d="M46.9 26.1001V71.7001L53.1 68.8001V32.3001L46.9 26.1001Z" fill="#1E8A5E"/>
<path d="M8.8 32.3001V68.0001L14.9 70.4001V26.1001L8.8 32.3001Z" fill="#97CAB5"/>
<path d="M65.4 65.2C65.4 65.2 38.3 78.4 34.3 81.1L0 66.2C5.7 68.8 31.1 82.6 34.5 84.5C34.5 84.6 57.6 69.7 65.4 65.2Z" fill="#1E8A5E"/>
<path d="M35.7 0.399902V77.1999L44 73.1999V8.6999L35.7 0.399902Z" fill="#1E8A5E"/>
<path d="M18.7 71.9L32.5 77.2V0L18.7 13.8V71.9Z" fill="#97CAB5"/>
</g>
<path d="M74.304 44H70.848V27.2H84.912V44H81.48V30.296H74.304V44Z" fill="#555555"/>
<path d="M92.0931 44H88.6371V27.2H95.9811C97.7891 27.2 99.2131 27.672 100.253 28.616C101.309 29.544 101.837 30.76 101.837 32.264C101.837 33.784 101.309 35.008 100.253 35.936C99.2131 36.88 97.7891 37.352 95.9811 37.352H92.0931V44ZM92.0931 30.224V34.4H95.7411C96.5731 34.4 97.2211 34.224 97.6851 33.872C98.1491 33.504 98.3811 32.984 98.3811 32.312C98.3811 31.64 98.1491 31.128 97.6851 30.776C97.2211 30.408 96.5731 30.224 95.7411 30.224H92.0931Z" fill="#555555"/>
<path d="M104.742 44H101.118L108.318 27.104H111.63L118.83 44H115.158L113.502 40.112H106.398L104.742 44ZM109.95 31.424L107.478 37.256H112.398L109.95 31.424Z" fill="#555555"/>
<path d="M124.507 44H121.051V27.2H124.507V33.824L130.699 27.2H134.923L127.795 34.904L136.147 44H131.731L124.507 36.248V44Z" fill="#555555"/>
<path d="M136.634 30.296V27.2H150.722V30.296H145.394V44H141.938V30.296H136.634Z" fill="#555555"/>
<path d="M156.205 44H153.301V27.2H156.757V38.144L164.893 27.2H167.869V44H164.437V32.984L156.205 44Z" fill="#555555"/>
<path d="M175.038 44H171.582V27.2H175.038V33.824L181.23 27.2H185.454L178.326 34.904L186.678 44H182.262L175.038 36.248V44Z" fill="#555555"/>
<path d="M76.686 65.216C74.874 65.216 73.368 64.604 72.168 63.38C70.956 62.132 70.35 60.572 70.35 58.7C70.35 56.828 70.956 55.274 72.168 54.038C73.368 52.802 74.874 52.184 76.686 52.184C78.066 52.184 79.266 52.514 80.286 53.174V54.074C79.194 53.342 78 52.976 76.704 52.976C75.144 52.976 73.836 53.522 72.78 54.614C71.724 55.682 71.196 57.044 71.196 58.7C71.196 60.344 71.724 61.712 72.78 62.804C73.836 63.884 75.15 64.424 76.722 64.424C78.222 64.424 79.506 63.986 80.574 63.11V64.028C79.53 64.82 78.234 65.216 76.686 65.216Z" fill="#555555"/>
<path d="M89.2745 65H88.4465V53.174H83.9285V52.4H93.7925V53.174H89.2745V65Z" fill="#555555"/>
<path d="M98.9606 65H98.1326V52.4H103.371C104.583 52.4 105.531 52.706 106.215 53.318C106.911 53.93 107.259 54.752 107.259 55.784C107.259 56.816 106.911 57.644 106.215 58.268C105.531 58.88 104.583 59.186 103.371 59.186H98.9606V65ZM98.9606 53.174V58.412H103.299C104.295 58.412 105.063 58.184 105.603 57.728C106.155 57.272 106.431 56.624 106.431 55.784C106.431 54.956 106.155 54.314 105.603 53.858C105.063 53.402 104.295 53.174 103.299 53.174H98.9606Z" fill="#555555"/>
<path d="M113.775 62.786C114.819 63.878 116.103 64.424 117.627 64.424C119.151 64.424 120.435 63.878 121.479 62.786C122.523 61.682 123.045 60.32 123.045 58.7C123.045 57.068 122.523 55.706 121.479 54.614C120.435 53.522 119.151 52.976 117.627 52.976C116.103 52.976 114.819 53.522 113.775 54.614C112.731 55.706 112.209 57.068 112.209 58.7C112.209 60.32 112.731 61.682 113.775 62.786ZM117.627 65.216C115.839 65.216 114.345 64.598 113.145 63.362C111.957 62.126 111.363 60.572 111.363 58.7C111.363 56.852 111.957 55.304 113.145 54.056C114.357 52.808 115.851 52.184 117.627 52.184C119.391 52.184 120.879 52.808 122.091 54.056C123.291 55.292 123.891 56.84 123.891 58.7C123.891 60.572 123.291 62.126 122.091 63.362C120.891 64.598 119.403 65.216 117.627 65.216Z" fill="#555555"/>
<path d="M129.646 65H128.926V52.4H129.754V63.596L138.268 52.4H139.024V65H138.196V53.768L129.646 65ZM133.984 51.41C133.132 51.41 132.448 51.176 131.932 50.708C131.428 50.24 131.17 49.616 131.158 48.836H131.896C131.896 49.4 132.082 49.856 132.454 50.204C132.838 50.552 133.348 50.726 133.984 50.726C134.596 50.726 135.088 50.552 135.46 50.204C135.844 49.844 136.036 49.388 136.036 48.836H136.774C136.762 49.592 136.492 50.21 135.964 50.69C135.448 51.17 134.788 51.41 133.984 51.41Z" fill="#555555"/>
<defs>
<clipPath id="clip0">
<rect width="65.4" height="84.6" fill="white"/>
</clipPath>
</defs>
</svg>
